<svg width="9" height="16" viewBox="0 0 9 16" fill="none" xmlns="http://www.w3.org/2000/svg">
<path d="M0.24652 9.08826C0.168413 9.01079 0.106416 8.91862 0.0641095 8.81707C0.0218016 8.71552 2.06735e-05 8.6066 2.06831e-05 8.49659C2.06927e-05 8.38658 0.0218017 8.27766 0.0641095 8.17611C0.106416 8.07456 0.168413 7.98239 0.24652 7.90492L6.91319 1.23826C6.99066 1.16015 7.08282 1.09815 7.18437 1.05585C7.28592 1.01354 7.39484 0.991758 7.50485 0.991758C7.61486 0.991758 7.72378 1.01354 7.82533 1.05585C7.92688 1.09815 8.01905 1.16015 8.09652 1.23826C8.17463 1.31573 8.23662 1.40789 8.27893 1.50944C8.32124 1.61099 8.34302 1.71991 8.34302 1.82992C8.34302 1.93993 8.32124 2.04885 8.27893 2.1504C8.23662 2.25195 8.17463 2.34412 8.09652 2.42159L2.01319 8.49659L8.09652 14.5716C8.25344 14.7285 8.3416 14.9413 8.3416 15.1633C8.3416 15.3852 8.25344 15.598 8.09652 15.7549C7.9396 15.9118 7.72677 16 7.50485 16C7.28293 16 7.07011 15.9118 6.91319 15.7549L0.24652 9.08826Z" fill="#56819C"/>
</svg>
