<svg width="243" height="52" viewBox="0 0 243 52" fill="none" xmlns="http://www.w3.org/2000/svg">
<path d="M9.125 10.6625C9.3 9.82639 9.80556 9.40833 10.6417 9.40833H19.0125C19.6736 9.40833 20.0042 9.69028 20.0042 10.2542C20.0042 10.3319 19.9847 10.4681 19.9458 10.6625L11.6333 49.775C11.4583 50.5917 10.9722 51 10.175 51H1.80417C1.10417 51 0.754167 50.7181 0.754167 50.1542C0.754167 50.0958 0.773611 49.9694 0.8125 49.775L9.125 10.6625ZM46.7609 31.3125C46.897 30.6319 46.9651 30.0681 46.9651 29.6208C46.9651 28.1819 46.5373 27.025 45.6818 26.15C44.8262 25.275 43.6109 24.8375 42.0359 24.8375C40.7915 24.8375 39.6248 25.1194 38.5359 25.6833C37.447 26.2472 36.5234 27.025 35.7651 28.0167C35.0068 29.0083 34.5012 30.1069 34.2484 31.3125L30.3984 49.3958C30.3207 49.8042 30.029 50.1736 29.5234 50.5042C29.0373 50.8347 28.5804 51 28.1526 51H20.6568C19.9179 51 19.5484 50.6986 19.5484 50.0958C19.5484 49.9208 19.5582 49.7847 19.5776 49.6875L26.6068 16.5833C26.8207 15.7083 27.3651 15.2708 28.2401 15.2708H33.4318C33.879 15.2708 34.2582 15.4264 34.5693 15.7375C34.8804 16.0486 35.0554 16.4278 35.0943 16.875L35.2109 20.0833C37.0193 18.2556 38.8762 16.9333 40.7818 16.1167C42.6873 15.2806 44.6998 14.8625 46.8193 14.8625C48.4137 14.8625 50.0568 15.2319 51.7484 15.9708C53.4596 16.6903 54.9179 17.8861 56.1234 19.5583C57.329 21.2306 57.9318 23.3986 57.9318 26.0625C57.9318 27.3458 57.7762 28.7264 57.4651 30.2042L53.3234 49.7167C53.1484 50.5722 52.6332 51 51.7776 51H43.9318C43.1929 51 42.8234 50.6986 42.8234 50.0958C42.8234 49.9403 42.8332 49.8139 42.8526 49.7167L46.7609 31.3125ZM72.9417 49.775C72.7667 50.5917 72.2708 51 71.4542 51H63.0833C62.3833 51 62.0333 50.7181 62.0333 50.1542C62.0333 50.0958 62.0528 49.9694 62.0917 49.775L67.3125 25.2167H63.4042C62.7819 25.2167 62.4708 24.9639 62.4708 24.4583C62.4708 24.4 62.4903 24.2736 62.5292 24.0792L64.1333 16.525C64.2111 16.175 64.3667 15.9028 64.6 15.7083C64.8528 15.5139 65.1542 15.4167 65.5042 15.4167H69.4125L70.6375 9.67083C70.7542 9.22361 70.9292 8.88333 71.1625 8.65C71.3958 8.39722 71.7944 8.18333 72.3583 8.00833L80.175 5.5875C80.4083 5.50972 80.6514 5.47083 80.9042 5.47083C81.2542 5.47083 81.5361 5.57778 81.75 5.79167C81.9639 5.98611 82.0708 6.27778 82.0708 6.66667C82.0708 6.9 82.0514 7.08472 82.0125 7.22083L80.2625 15.4167H84.9583C85.25 15.4167 85.4736 15.5042 85.6292 15.6792C85.7847 15.8347 85.8625 16.0292 85.8625 16.2625C85.8625 16.3792 85.8528 16.4667 85.8333 16.525L84.2292 24.0792C84.0542 24.8375 83.5972 25.2167 82.8583 25.2167H78.1625L72.9417 49.775ZM109.998 39.6833C110.251 39.5083 110.513 39.4208 110.785 39.4208C111.116 39.4208 111.359 39.5569 111.515 39.8292L114.49 44.8167C114.665 45.1083 114.752 45.3806 114.752 45.6333C114.752 46.0028 114.509 46.3625 114.023 46.7125C111.417 48.6375 109.026 49.9306 106.848 50.5917C104.69 51.2528 102.376 51.5833 99.9063 51.5833C97.0674 51.5833 94.4813 50.9222 92.1479 49.6C89.8146 48.2778 87.9771 46.4694 86.6354 44.175C85.2938 41.8611 84.6229 39.2847 84.6229 36.4458C84.6229 35.3569 84.7201 34.2972 84.9146 33.2667C85.5563 29.65 86.8785 26.4611 88.8813 23.7C90.9035 20.9194 93.4215 18.7708 96.4354 17.2542C99.4493 15.7181 102.716 14.95 106.235 14.95C108.374 14.95 110.465 15.475 112.506 16.525C114.548 17.5556 116.23 19.1597 117.552 21.3375C118.894 23.4958 119.565 26.1694 119.565 29.3583C119.565 30.5639 119.467 31.7889 119.273 33.0333C119.117 34.0444 118.855 34.8028 118.485 35.3083C118.116 35.7944 117.61 36.125 116.969 36.3C116.347 36.475 115.481 36.5625 114.373 36.5625H94.4813C94.559 37.8264 94.8896 38.9347 95.4729 39.8875C96.0563 40.8403 96.834 41.5792 97.8063 42.1042C98.7979 42.6292 99.916 42.8917 101.16 42.8917C102.541 42.8917 103.717 42.775 104.69 42.5417C105.662 42.3083 106.449 42.0264 107.052 41.6958C107.655 41.3458 108.316 40.8986 109.035 40.3542C109.463 40.0431 109.784 39.8194 109.998 39.6833ZM104.719 23.4083C103.183 23.4083 101.705 23.8944 100.285 24.8667C98.8854 25.8194 97.6993 27.0542 96.7271 28.5708H110.873C110.717 26.9375 110.066 25.6736 108.919 24.7792C107.772 23.8653 106.372 23.4083 104.719 23.4083ZM129.23 16.5542C129.405 15.6986 129.91 15.2708 130.746 15.2708H135.53C136.035 15.2708 136.424 15.3583 136.696 15.5333C136.969 15.6889 137.173 16.0875 137.309 16.7292L137.892 19.85C138.864 18.7806 139.73 17.925 140.488 17.2833C141.246 16.6222 142.17 16.0681 143.259 15.6208C144.348 15.1542 145.592 14.9208 146.992 14.9208C148.392 14.9208 149.763 15.2028 151.105 15.7667C152.446 16.3306 153.584 16.9625 154.517 17.6625C155.47 18.3431 156.151 18.9069 156.559 19.3542C156.889 19.7042 157.055 20.0444 157.055 20.375C157.055 20.7056 156.841 21.1139 156.413 21.6L151.659 26.7625C151.309 27.1514 150.978 27.3458 150.667 27.3458C150.395 27.3458 150.123 27.2 149.851 26.9083C149.753 26.8111 149.462 26.5097 148.976 26.0042C148.489 25.4986 147.867 25.0806 147.109 24.75C146.351 24.4 145.524 24.225 144.63 24.225C143.463 24.225 142.355 24.4681 141.305 24.9542C140.255 25.4208 139.341 26.1306 138.563 27.0833C137.805 28.0167 137.289 29.1542 137.017 30.4958L132.934 49.7458C132.739 50.5819 132.224 51 131.388 51H123.163C122.832 51 122.57 50.9319 122.376 50.7958C122.201 50.6403 122.113 50.4264 122.113 50.1542C122.113 50.0764 122.132 49.9403 122.171 49.7458L129.23 16.5542ZM172.466 49.775C172.174 50.2028 171.873 50.5139 171.561 50.7083C171.27 50.9028 170.93 51 170.541 51H166.282C165.466 51 164.98 50.5917 164.824 49.775L158.67 17.4292C158.631 17.1569 158.611 16.9722 158.611 16.875C158.611 16.3694 158.757 15.9806 159.049 15.7083C159.36 15.4167 159.768 15.2708 160.274 15.2708H168.003C168.8 15.2708 169.257 15.7083 169.374 16.5833L171.766 34.7833L181.886 16.4958C182.314 15.6792 182.956 15.2708 183.811 15.2708H192.62C193.164 15.2708 193.436 15.4556 193.436 15.825C193.436 16.1556 193.252 16.6028 192.882 17.1667L172.466 49.775ZM200.068 2.4375C200.243 1.71805 200.545 1.15416 200.972 0.745829C201.42 0.318053 202.052 0.104166 202.868 0.104166H209.285C210.432 0.104166 211.006 0.60972 211.006 1.62083C211.006 1.77639 210.967 2.04861 210.889 2.4375L209.518 8.9125C209.363 9.69028 209.081 10.225 208.672 10.5167C208.284 10.8083 207.72 10.9542 206.981 10.9542H200.564C199.942 10.9542 199.465 10.8569 199.135 10.6625C198.804 10.4486 198.639 10.0889 198.639 9.58333C198.639 9.31111 198.659 9.09722 198.697 8.94166L200.068 2.4375ZM197.122 16.4958C197.22 16.1069 197.414 15.8056 197.706 15.5917C197.997 15.3778 198.299 15.2708 198.61 15.2708H206.922C207.234 15.2708 207.477 15.3583 207.652 15.5333C207.827 15.7083 207.914 15.9319 207.914 16.2042C207.914 16.3403 207.904 16.4375 207.885 16.4958L200.797 49.775C200.622 50.5917 200.136 51 199.339 51H191.027C190.327 51 189.977 50.7181 189.977 50.1542C189.977 50.0958 189.996 49.9694 190.035 49.775L197.122 16.4958ZM241.492 15.2708C242.037 15.2708 242.309 15.5236 242.309 16.0292C242.309 16.1847 242.299 16.3014 242.28 16.3792L240.967 22.475C240.909 22.8056 240.821 23.0583 240.705 23.2333C240.607 23.3889 240.471 23.5542 240.296 23.7292C240.141 23.8847 240.024 24.0014 239.946 24.0792L220.959 41.9583H236.096C236.407 41.9583 236.631 42.0653 236.767 42.2792C236.923 42.4931 236.971 42.7264 236.913 42.9792L235.426 49.9792C235.367 50.2514 235.221 50.4944 234.988 50.7083C234.755 50.9222 234.482 51.0292 234.171 51.0292H207.046C206.502 51.0292 206.23 50.7958 206.23 50.3292C206.23 50.1736 206.239 50.0569 206.259 49.9792L207.396 44.5542C207.474 44.2236 207.552 43.9806 207.63 43.825C207.727 43.65 207.853 43.4944 208.009 43.3583L228.251 24.4H213.58C213.269 24.4 213.045 24.2931 212.909 24.0792C212.773 23.8653 212.734 23.6319 212.792 23.3792L214.28 16.3792C214.319 16.1069 214.455 15.8542 214.688 15.6208C214.941 15.3875 215.223 15.2708 215.534 15.2708H241.492Z" fill="white"/>
</svg>
